# xmcd
#
# Track frame offsets:
#	150
#	13300
#	27812
#	47207
#	61690
#	73007
#	89487
#	103447
#	116625
#
# Disc length: 1725 seconds
#
# Revision: 2
# Processed by: cddbd v1.5.2PL0 Copyright (c) Steve Scherf et al.
# Submitted via: EZCDAudioConverter 6.0.3.1
#
DISCID=7d06bb09
DTITLE=Various Artist - Two Steppin' Country vol.2
DYEAR=1994
DGENRE=Country
TTITLE0=Vince Gill - Liza Jane
TTITLE1=Diamond Rio - Mirror Mirror
TTITLE2=Restless Heart - Dancy's Dream
TTITLE3=Marty Stuart - Little Things
TTITLE4=Ricky Van Shelton - I've Cried My Last Tear For You
TTITLE5=Steve Earle - Hillbilly Highway
TTITLE6=Rodney Crowell - Crazy Baby
TTITLE7=Sawyer Brown - The Race Is On
TTITLE8=Merle Haggard - Let's Chase Each Other Around The Room
EXTD=
EXTT0=
EXTT1=
EXTT2=
EXTT3=
EXTT4=
EXTT5=
EXTT6=
EXTT7=
EXTT8=
PLAYORDER=
